<svg xmlns="http://www.w3.org/2000/svg" xmlns:xlink="http://www.w3.org/1999/xlink" version="1.1" width="256" height="256" viewBox="0 0 256 256" xml:space="preserve">

<defs>
</defs>
<g style="stroke: none; stroke-width: 0; stroke-dasharray: none; stroke-linecap: butt; stroke-linejoin: miter; stroke-miterlimit: 10; fill: none; fill-rule: nonzero; opacity: 1;" transform="translate(1.4065934065934016 1.4065934065934016) scale(2.81 2.81)" >
	<ellipse cx="29.07" cy="41.5" rx="5.41" ry="5.41" style="stroke: none; stroke-width: 1; stroke-dasharray: none; stroke-linecap: butt; stroke-linejoin: miter; stroke-miterlimit: 10; fill: rgb(0,0,0); fill-rule: nonzero; opacity: 1;" transform=" matrix(0.7071 -0.7071 0.7071 0.7071 -20.835 32.7097) "/>
	<ellipse cx="45" cy="41.5" rx="5.41" ry="5.41" style="stroke: none; stroke-width: 1; stroke-dasharray: none; stroke-linecap: butt; stroke-linejoin: miter; stroke-miterlimit: 10; fill: rgb(0,0,0); fill-rule: nonzero; opacity: 1;" transform=" matrix(0.9871 -0.1602 0.1602 0.9871 -6.0673 7.7442) "/>
	<ellipse cx="60.93000000000001" cy="41.5" rx="5.41" ry="5.41" style="stroke: none; stroke-width: 1; stroke-dasharray: none; stroke-linecap: butt; stroke-linejoin: miter; stroke-miterlimit: 10; fill: rgb(0,0,0); fill-rule: nonzero; opacity: 1;" transform=" matrix(0.9732 -0.2298 0.2298 0.9732 -7.9058 15.1098) "/>
	<path d="M 85.305 40.29 c 0 -8.394 -2.559 -16.39 -7.291 -23.117 l 5.633 0.493 l 0.527 -6.026 L 68.072 10.23 l -1.409 16.102 l 6.026 0.527 l 0.524 -5.987 c 9.187 13.338 7.863 31.785 -3.99 43.64 c -0.87 0.869 -1.834 1.729 -2.866 2.554 l -1.288 1.03 l 0.947 9.236 l -7.666 -5.449 l -1.498 0.55 c -9.724 3.576 -20.793 2.514 -29.612 -2.842 l -3.14 5.171 c 9.921 6.025 22.256 7.435 33.311 3.876 L 73.394 90 l -1.975 -19.278 c 0.731 -0.632 1.427 -1.279 2.08 -1.933 C 81.112 61.177 85.305 51.055 85.305 40.29 z" style="stroke: none; stroke-width: 1; stroke-dasharray: none; stroke-linecap: butt; stroke-linejoin: miter; stroke-miterlimit: 10; fill: rgb(0,0,0); fill-rule: nonzero; opacity: 1;" transform=" matrix(1 0 0 1 0 0) " stroke-linecap="round" />
	<path d="M 16.787 59.707 c -9.187 -13.339 -7.863 -31.786 3.99 -43.64 C 31.631 5.214 48.528 2.91 61.866 10.463 L 64.847 5.2 C 49.15 -3.69 29.268 -0.98 16.5 11.79 C 8.888 19.402 4.695 29.524 4.695 40.29 c 0 8.394 2.559 16.39 7.291 23.117 l -5.633 -0.493 L 5.826 68.94 l 16.102 1.409 l 1.409 -16.102 l -6.026 -0.527 L 16.787 59.707 z" style="stroke: none; stroke-width: 1; stroke-dasharray: none; stroke-linecap: butt; stroke-linejoin: miter; stroke-miterlimit: 10; fill: rgb(0,0,0); fill-rule: nonzero; opacity: 1;" transform=" matrix(1 0 0 1 0 0) " stroke-linecap="round" />
</g>
</svg>